<svg width="330" height="179" viewBox="0 0 330 179" fill="none" xmlns="http://www.w3.org/2000/svg">
<path d="M301 175.5C300.4 173.9 300 158.4 300 137.4C300 95.3 299.2 98 311.8 98C316.5 98 320.3 98.5 321.3 99.3C322.9 100.4 323 103.7 322.8 139L322.5 177.5L312.2 177.8C302 178.1 302 178.1 301 175.5Z" fill="#15A6C3"/>
<path d="M301.2 84.8C300.5 84.1 300 80.6 300 76C300 71.4 300.5 67.9 301.2 67.2C302 66.4 305.9 66 312 66C318.1 66 322 66.4 322.8 67.2C324.4 68.8 324.4 83.2 322.8 84.8C322 85.6 318.1 86 312 86C305.9 86 302 85.6 301.2 84.8V84.8Z" fill="#15A6C3"/>
<path d="M281.615 53.7368C280.203 50.0526 278.791 47.3158 278.32 47.1053C277.797 46.8947 274.606 45.6842 271.154 44.3684C264.04 41.7368 262 40.1053 262 37.1579C262 36.2105 264.825 28 268.277 18.8947C275.077 0.894737 275.6 0 279.157 0C280.412 0 289.305 3.1579 303.689 8.63158C316.138 13.4211 326.757 17.5789 327.332 17.8947C328.588 18.5263 330 21.0526 330 22.5263C330 23.1053 327.175 31.1053 323.671 40.3158C319.172 52.3684 317.028 57.4211 316.086 58.3158C314.517 59.6842 311.065 59.8947 308.449 58.6842C307.508 58.2632 304.474 57.0526 301.754 56L296.785 54.1053L291.24 57.0526C288.154 58.6842 285.329 60 284.858 60C284.283 60 283.289 58 281.615 53.7368V53.7368ZM314.988 56.3158C316.138 55.2105 327.908 24.5263 327.908 22.5789C327.908 20.8421 326.182 19.2632 323.2 18.2105C321.892 17.7895 318.126 16.3684 314.831 15.1053C311.535 13.8421 305.886 11.6842 302.277 10.3158C293.489 6.94737 287.997 4.84211 284.283 3.31579C280.831 1.94737 278.32 1.78948 277.012 2.78948C275.914 3.57895 264.092 34.6316 264.092 36.7368C264.092 37.5263 264.406 38.6316 264.772 39.1053C265.348 39.8947 277.169 44.8421 277.588 44.4737C277.692 44.3684 277.483 43.7895 277.169 43.1579C276.542 41.9474 276.803 40.5263 277.692 40.5263C278.372 40.5263 280.203 44.3684 282.923 51.4737C284.126 54.6842 285.329 57.3684 285.591 57.3684C285.8 57.3684 289.357 55.7368 293.437 53.6842C297.517 51.6842 301.283 50 301.806 50C303.375 50 302.957 51.3684 301.231 52.1053C300.342 52.4737 299.714 52.8947 299.871 53C300.028 53.1579 302.8 54.3158 306.043 55.579C312.111 57.8947 313.262 58 314.988 56.3158V56.3158Z" fill="#15A6C3"/>
<path d="M1.10003 176.6C0.300031 175.7 0.10003 160.9 0.20003 123.4L0.500033 71.5L10 71.2C25.4 70.7 24 68.6 24 92.5V113H45H66L66.2 92.3L66.5 71.5L76.9 71.2C83.6 71 87.7 71.3 88.6 72.1C90.7 73.8 90.7 175.2 88.6 176.9C87.7 177.7 83.6 178 76.9 177.8L66.5 177.5L66.2 156.3L66 135H45H24V155.3C24 169.8 23.7 175.9 22.8 176.8C21 178.6 2.60003 178.4 1.10003 176.6Z" fill="#0C1821"/>
<path d="M103.2 176.8C102.3 175.9 102 165.9 102 137.8C102 94.1 100.8 98 113.9 98C119.8 98 122.3 98.4 123.4 99.6C124.8 100.9 125 105.8 125 137.6C125 160.9 124.6 174.8 124 176.1C123.1 177.8 121.8 178 113.7 178C107.8 178 104 177.6 103.2 176.8Z" fill="#0C1821"/>
<path d="M162.7 176.9C157.4 175.7 154 173.7 150.3 169.8C144.2 163.5 143.6 160.7 143.2 137.3L142.8 116H135.5C127.1 116 127 115.9 127 107C127 99.2 128.3 98 136.6 98H143V84.5C143 68.6 142.7 69 154.9 69C166 69 166 69 166 85.1V98H175.9C188.2 98 189 98.6 189 107.4C189 110.9 188.5 114.1 187.8 114.8C187 115.6 183 116 176.3 116H166V134C166 152.8 166.8 156.9 170.5 158.4C171.4 158.7 175.7 159 180.1 159C186.8 159 188.2 159.3 189.2 160.9C190.4 162.8 190.5 162.8 192.1 160.2C193 158.7 202 148.3 211.9 137L230.1 116.5L211.3 116L192.5 115.5L192.2 108C192 101.8 192.2 100.3 193.6 99.3C195.9 97.6 254.1 97.4 257.1 99C258.7 99.9 259 101.2 259 107.8V115.6L239.9 137.5L220.9 159.5L240.1 159.8C252.2 159.9 259.8 160.5 260.7 161.1C262.7 162.8 262.5 176.6 260.4 177.4C259.5 177.7 243.8 178 225.5 178C196.2 178 192 177.8 191.2 176.4C190.4 175 190.2 175 189.1 176.4C188 177.7 185.6 178 177.1 177.9C171.3 177.8 164.8 177.4 162.7 176.9V176.9Z" fill="#0C1821"/>
<path d="M269.2 176.8C268.3 175.9 268 165.9 268 137.8C268 94.1 266.8 98 279.9 98C285.8 98 288.3 98.4 289.4 99.6C290.8 100.9 291 105.8 291 137.6C291 160.9 290.6 174.8 290 176.1C289.1 177.8 287.8 178 279.7 178C273.8 178 270 177.6 269.2 176.8Z" fill="#0C1821"/>
<path d="M102 84.1C100.4 80.9 100.7 69.4 102.6 67.6C104.5 65.6 121.9 65.3 123.8 67.2C124.5 67.9 125 71.6 125 76.6C125 83.1 124.7 84.9 123.4 85.4C122.5 85.7 117.6 86 112.5 86C104.2 86 102.9 85.8 102 84.1V84.1Z" fill="#0C1821"/>
<path d="M268 84.1C266.4 80.9 266.7 69.4 268.6 67.6C270.5 65.6 287.9 65.3 289.8 67.2C290.5 67.9 291 71.6 291 76.6C291 83.1 290.7 84.9 289.4 85.4C288.5 85.7 283.6 86 278.5 86C270.2 86 268.9 85.8 268 84.1Z" fill="#0C1821"/>
</svg>
