<svg width="186" height="51" viewBox="0 0 186 51" fill="none" xmlns="http://www.w3.org/2000/svg">
<g clip-path="url(#clip0)">
<path d="M94.731 18.508V-0.155655H98.8917H103.052V5.33548C103.052 8.35869 103.145 10.95 103.237 11.0426C103.361 11.166 106.011 8.75972 109.124 5.70567L114.795 0.152836H120.312C125.582 0.152836 125.859 0.183685 125.859 0.738968C125.859 1.10916 122.654 4.4717 117.384 9.59265C112.73 14.1583 108.847 18.0761 108.754 18.3538C108.6 18.6623 111.343 21.5621 117.754 27.8244L126.938 36.8324L120.928 36.8632H114.918L109.001 30.9402L103.052 24.9863V31.0944V37.1717H98.8917H94.731V18.508Z" fill="#1B998B"/>
<path d="M127.708 18.508V0.152832H139.574H151.44V4.16321V8.17359H143.735H136.03V11.4127V14.6519H142.04H148.05V18.508V22.3642H142.04H136.03V25.6033V28.8425H143.735H151.44V32.8528V36.8632H139.574H127.708V18.508Z" fill="#1B998B"/>
<path d="M162.227 36.709C162.227 36.6473 163.059 34.457 164.107 31.8965C165.124 29.336 165.987 26.9915 165.987 26.7139C166.018 26.282 164.662 23.3205 156.341 5.64397C154.984 2.80585 153.906 0.399625 153.906 0.307077C153.906 0.21453 155.909 0.152832 158.344 0.152832C162.597 0.152832 162.782 0.183681 163.214 0.86236C163.46 1.23255 165.001 4.44085 166.665 8.01934C169.778 14.6827 170.333 15.6082 170.826 15.1146C170.98 14.9295 172.028 12.585 173.138 9.87029C176.312 1.97293 176.959 0.399625 177.113 0.276228C177.175 0.183681 179.178 0.183681 181.582 0.21453L185.897 0.307077L183.031 7.40236C180.226 14.4051 172.49 33.439 171.535 35.7218L171.073 36.8632H166.635C164.231 36.8632 162.227 36.8015 162.227 36.709Z" fill="#1B998B"/>
<path d="M27.4498 42.0767L29.7306 33.1305L27.8197 31.0636C25.7239 28.8425 23.8439 25.2948 23.2583 22.4259C21.933 16.0401 24.337 8.60548 29.0217 4.62595C35.0625 -0.55669 42.0895 -1.48216 49.4864 1.94208C51.4589 2.83671 52.63 3.66963 54.1094 5.11954C56.5442 7.52576 57.5613 9.09907 58.7016 12.2457C59.503 14.436 59.5954 15.0529 59.5954 18.4772C59.5954 24.0609 58.4859 26.9607 54.7566 31.1561C53.8629 32.1742 53.1232 33.2539 53.1232 33.5624C53.1232 33.9943 56.6059 47.136 57.6229 50.5294C57.777 51.0229 56.8524 51.0538 41.4731 51.0538H25.1383L27.4498 42.0767ZM48.1919 42.8171C48.1919 42.7245 47.3598 39.5162 46.3427 35.7218C45.3256 31.8965 44.4935 28.6574 44.4935 28.5031C44.4935 28.318 45.1099 27.917 45.8188 27.6085C47.2365 26.9607 49.6713 24.6161 50.4418 23.1045C51.3972 21.2536 51.7363 18.7548 51.3048 16.7188C50.8116 14.3743 50.3185 13.4179 48.7159 11.6287C43.8463 6.32265 35.309 7.83425 32.2578 14.5593C31.5798 16.071 31.4873 16.5645 31.6106 18.9091C31.7031 20.8834 31.9188 21.9323 32.4427 22.9194C33.3982 24.7704 35.0008 26.4671 36.6343 27.3309C37.4048 27.7319 38.0212 28.2872 38.0212 28.5648C38.0212 28.9967 35.1857 41.0278 34.7543 42.5086C34.6002 43.0022 35.0625 43.033 41.3806 43.033C45.1407 43.033 48.1919 42.9405 48.1919 42.8171Z" fill="#2D3047"/>
<path d="M-0.195801 18.6623V0.152832H3.96494H8.12568V14.4976V28.8425H14.9062H21.6866V33.0071V37.1717H10.7454H-0.195801V18.6623Z" fill="#2D3047"/>
<path d="M74.235 36.5856C68.9648 35.2591 64.4958 31.5572 61.9994 26.4979L60.6741 23.7524L60.5816 19.0942C60.4892 14.4977 60.4892 14.4051 61.4446 11.9372C63.6945 6.07586 68.5333 1.81869 74.6973 0.276233C77.4712 -0.433296 82.4641 -0.186503 85.0221 0.769818C86.9946 1.5102 90.539 3.66963 91.402 4.6568C91.9259 5.24293 91.8334 5.36633 89.0288 8.17359L86.1317 11.0426L84.868 10.2096C81.9093 8.23529 77.9027 7.89595 74.8514 9.34586C72.4166 10.5181 69.951 13.1711 69.3038 15.3306C68.8107 17.0581 68.6874 20.8217 69.1189 21.3153C69.273 21.4695 69.5504 22.0865 69.7353 22.7344C70.2284 24.2151 72.9098 26.9298 74.6665 27.701C76.7623 28.6265 79.9676 28.7499 82.1559 27.9787C83.1113 27.6394 84.3749 26.9915 84.9297 26.5596L85.9776 25.7884L88.8439 28.6574L91.6793 31.5263L90.878 32.4827C89.8918 33.6549 85.7002 35.7835 83.1729 36.3696C80.0293 37.11 76.6698 37.2026 74.235 36.5856Z" fill="#2D3047"/>
<path d="M94.731 18.508V-0.155655H98.8917H103.022L103.114 5.64397L103.207 11.4127L99.9088 14.7136C98.0595 16.5337 96.5802 18.1995 96.5802 18.4155C96.5802 18.6314 98.0287 20.2664 99.8163 22.0557L103.052 25.2948V31.2178V37.1717H98.8917H94.731V18.508Z" fill="#2D3047"/>
</g>
<defs>
<clipPath id="clip0">
<rect width="186" height="51" fill="white"/>
</clipPath>
</defs>
</svg>
